<?xml version="1.0" encoding="UTF-8"?>
<svg width="169px" height="34px" viewBox="0 0 169 34" version="1.1" xmlns="http://www.w3.org/2000/svg" xmlns:xlink="http://www.w3.org/1999/xlink">
    <!-- Generator: Sketch 50 (54983) - http://www.bohemiancoding.com/sketch -->
    <title>logo_black</title>
    <desc>Created with Sketch.</desc>
    <defs></defs>
    <g id="logo_black" stroke="none" stroke-width="1" fill="none" fill-rule="evenodd">
        <path d="M19.6631,17.8393 C19.6631,16.4023 19.5321,15.0663 19.2701,13.8313 C19.0081,12.5963 18.5721,11.5253 17.9611,10.6173 C17.3501,9.7093 16.5341,9.0003 15.5141,8.4903 C14.4931,7.9813 13.2311,7.7263 11.7271,7.7263 C10.2231,7.7263 8.9611,8.0013 7.9401,8.5493 C6.9201,9.0983 6.0911,9.8303 5.4531,10.7443 C4.8151,11.6593 4.3581,12.7273 4.0831,13.9493 C3.8081,15.1713 3.6701,16.4543 3.6701,17.8003 C3.6701,19.2893 3.7981,20.6613 4.0531,21.9153 C4.3081,23.1703 4.7381,24.2513 5.3421,25.1593 C5.9461,26.0683 6.7551,26.7733 7.7691,27.2763 C8.7831,27.7793 10.0551,28.0303 11.5861,28.0303 C13.1031,28.0303 14.3791,27.7563 15.4131,27.2073 C16.4471,26.6583 17.2791,25.9173 17.9111,24.9833 C18.5411,24.0493 18.9921,22.9683 19.2601,21.7393 C19.5281,20.5113 19.6631,19.2113 19.6631,17.8393 M23.3331,17.6043 C23.3331,19.6553 23.0841,21.5043 22.5871,23.1513 C22.0901,24.7973 21.3471,26.1983 20.3591,27.3553 C19.3711,28.5113 18.1301,29.4003 16.6381,30.0203 C15.1451,30.6403 13.4041,30.9503 11.4141,30.9503 C9.4521,30.9503 7.7541,30.6663 6.3221,30.0983 C4.8911,29.5293 3.7071,28.7033 2.7731,27.6193 C1.8381,26.5343 1.1421,25.1893 0.6851,23.5813 C0.2281,21.9753 0.0001,20.1263 0.0001,18.0353 C0.0001,16.0363 0.2481,14.2203 0.7461,12.5873 C1.2431,10.9533 1.9901,9.5653 2.9851,8.4223 C3.9791,7.2783 5.2231,6.3973 6.7161,5.7763 C8.2081,5.1553 9.9491,4.8453 11.9391,4.8453 C13.8611,4.8453 15.5351,5.1263 16.9601,5.6883 C18.3861,6.2503 19.5721,7.0693 20.5201,8.1483 C21.4681,9.2253 22.1741,10.5583 22.6381,12.1463 C23.1011,13.7333 23.3331,15.5533 23.3331,17.6043" id="Fill-1" fill="#000000"></path>
        <path d="M57.1938,30.0688 C57.1938,30.1728 57.1668,30.2648 57.1108,30.3428 C57.0558,30.4218 56.9588,30.4838 56.8198,30.5298 C56.6808,30.5758 56.5048,30.6148 56.2908,30.6468 C56.0758,30.6788 55.7958,30.6958 55.4488,30.6958 C55.1308,30.6958 54.8578,30.6788 54.6288,30.6468 C54.4008,30.6148 54.2198,30.5758 54.0888,30.5298 C53.9568,30.4838 53.8638,30.4218 53.8078,30.3428 C53.7528,30.2648 53.7248,30.1728 53.7248,30.0688 L53.7248,7.9808 L53.6848,7.9808 L44.4888,30.1678 C44.4478,30.2578 44.3908,30.3378 44.3178,30.4018 C44.2428,30.4668 44.1358,30.5228 43.9948,30.5688 C43.8538,30.6148 43.6848,30.6468 43.4898,30.6668 C43.2958,30.6858 43.0638,30.6958 42.7948,30.6958 C42.5118,30.6958 42.2708,30.6828 42.0688,30.6568 C41.8668,30.6308 41.6988,30.5948 41.5648,30.5488 C41.4298,30.5038 41.3258,30.4478 41.2518,30.3818 C41.1778,30.3178 41.1278,30.2458 41.1008,30.1678 L32.3078,7.9808 L32.2878,7.9808 L32.2878,30.0688 C32.2878,30.1728 32.2598,30.2648 32.2048,30.3428 C32.1488,30.4218 32.0518,30.4838 31.9138,30.5298 C31.7748,30.5758 31.5948,30.6148 31.3738,30.6468 C31.1518,30.6788 30.8678,30.6958 30.5218,30.6958 C30.1898,30.6958 29.9128,30.6788 29.6908,30.6468 C29.4698,30.6148 29.2928,30.5758 29.1618,30.5298 C29.0298,30.4838 28.9398,30.4218 28.8908,30.3428 C28.8428,30.2648 28.8188,30.1728 28.8188,30.0688 L28.8188,6.7468 C28.8188,6.1978 28.9688,5.8058 29.2688,5.5698 C29.5688,5.3358 29.9038,5.2178 30.2728,5.2178 L32.4028,5.2178 C32.8398,5.2178 33.2218,5.2568 33.5488,5.3358 C33.8768,5.4138 34.1638,5.5378 34.4088,5.7078 C34.6548,5.8778 34.8598,6.0928 35.0238,6.3548 C35.1878,6.6158 35.3308,6.9228 35.4538,7.2758 L42.9158,25.6398 L43.0168,25.6398 L50.7808,7.3348 C50.9308,6.9428 51.0948,6.6098 51.2728,6.3348 C51.4498,6.0608 51.6448,5.8418 51.8568,5.6778 C52.0688,5.5148 52.3038,5.3978 52.5638,5.3258 C52.8228,5.2538 53.1238,5.2178 53.4648,5.2178 L55.6978,5.2178 C55.9028,5.2178 56.0978,5.2468 56.2818,5.3058 C56.4658,5.3648 56.6238,5.4568 56.7538,5.5808 C56.8828,5.7048 56.9888,5.8608 57.0708,6.0508 C57.1528,6.2398 57.1938,6.4718 57.1938,6.7468 L57.1938,30.0688 Z" id="Fill-3" fill="#000000"></path>
        <path d="M83.8555,29.1869 C83.8555,29.4489 83.8105,29.6699 83.7195,29.8529 C83.6285,30.0369 83.5115,30.1869 83.3655,30.3039 C83.2185,30.4209 83.0555,30.5069 82.8755,30.5589 C82.6945,30.6109 82.5135,30.6369 82.3325,30.6369 L81.1855,30.6369 C80.8245,30.6369 80.5075,30.6009 80.2365,30.5299 C79.9645,30.4579 79.7085,30.3279 79.4645,30.1369 C79.2215,29.9489 78.9785,29.6899 78.7345,29.3639 C78.4925,29.0369 78.2325,28.6189 77.9605,28.1089 L69.9995,13.6849 C69.5835,12.9389 69.1635,12.1589 68.7405,11.3419 C68.3175,10.5259 67.9245,9.7319 67.5605,8.9609 L67.5205,8.9609 C67.5465,9.9019 67.5665,10.8619 67.5805,11.8419 C67.5935,12.8219 67.6005,13.7949 67.6005,14.7619 L67.6005,30.0689 C67.6005,30.1609 67.5725,30.2489 67.5155,30.3329 C67.4595,30.4179 67.3625,30.4839 67.2285,30.5299 C67.0935,30.5759 66.9165,30.6149 66.6965,30.6469 C66.4765,30.6789 66.1955,30.6959 65.8555,30.6959 C65.5145,30.6959 65.2345,30.6789 65.0145,30.6469 C64.7945,30.6149 64.6215,30.5759 64.4935,30.5299 C64.3655,30.4839 64.2735,30.4179 64.2165,30.3329 C64.1605,30.2489 64.1315,30.1609 64.1315,30.0689 L64.1315,6.6679 C64.1315,6.1449 64.2845,5.7729 64.5895,5.5509 C64.8955,5.3289 65.2285,5.2179 65.5885,5.2179 L67.2955,5.2179 C67.6975,5.2179 68.0345,5.2499 68.3055,5.3159 C68.5755,5.3809 68.8185,5.4889 69.0335,5.6389 C69.2485,5.7899 69.4575,5.9989 69.6585,6.2659 C69.8595,6.5339 70.0705,6.8709 70.2915,7.2749 L76.4115,18.4079 C76.7885,19.0869 77.1525,19.7499 77.5035,20.3969 C77.8535,21.0429 78.1915,21.6809 78.5165,22.3079 C78.8415,22.9349 79.1635,23.5519 79.4815,24.1599 C79.7995,24.7669 80.1155,25.3779 80.4265,25.9929 L80.4475,25.9929 C80.4195,24.9599 80.4035,23.8849 80.3965,22.7679 C80.3895,21.6509 80.3865,20.5769 80.3865,19.5439 L80.3865,5.7859 C80.3865,5.6949 80.4155,5.6099 80.4715,5.5309 C80.5285,5.4529 80.6245,5.3839 80.7585,5.3259 C80.8935,5.2669 81.0705,5.2249 81.2915,5.1979 C81.5105,5.1719 81.7975,5.1589 82.1525,5.1589 C82.4645,5.1589 82.7345,5.1719 82.9605,5.1979 C83.1885,5.2249 83.3655,5.2669 83.4945,5.3259 C83.6215,5.3839 83.7125,5.4529 83.7695,5.5309 C83.8275,5.6099 83.8555,5.6949 83.8555,5.7859 L83.8555,29.1869 Z" id="Fill-5" fill="#000000"></path>
        <path d="M94.2617,30.0688 C94.2617,30.1728 94.2347,30.2648 94.1807,30.3428 C94.1267,30.4218 94.0327,30.4838 93.8987,30.5298 C93.7637,30.5758 93.5857,30.6148 93.3637,30.6468 C93.1427,30.6788 92.8637,30.6958 92.5277,30.6958 C92.2037,30.6958 91.9277,30.6788 91.6997,30.6468 C91.4707,30.6148 91.2887,30.5758 91.1557,30.5298 C91.0217,30.4838 90.9267,30.4218 90.8727,30.3428 C90.8197,30.2648 90.7927,30.1728 90.7927,30.0688 L90.7927,5.7278 C90.7927,5.6228 90.8227,5.5308 90.8827,5.4528 C90.9437,5.3748 91.0447,5.3128 91.1857,5.2668 C91.3267,5.2208 91.5077,5.1818 91.7307,5.1488 C91.9517,5.1168 92.2167,5.0998 92.5277,5.0998 C92.8637,5.0998 93.1427,5.1168 93.3637,5.1488 C93.5857,5.1818 93.7637,5.2208 93.8987,5.2668 C94.0327,5.3128 94.1267,5.3748 94.1807,5.4528 C94.2347,5.5308 94.2617,5.6228 94.2617,5.7278 L94.2617,30.0688 Z" id="Fill-7" fill="#000000"></path>
        <path d="M109.5078,8.5888 L109.4878,8.5888 L104.9898,21.2298 L114.0658,21.2298 L109.5078,8.5888 Z M120.7408,29.3828 C120.8488,29.6708 120.9048,29.9028 120.9128,30.0788 C120.9188,30.2558 120.8688,30.3888 120.7618,30.4808 C120.6538,30.5718 120.4758,30.6308 120.2268,30.6568 C119.9778,30.6828 119.6458,30.6958 119.2288,30.6958 C118.8118,30.6958 118.4798,30.6858 118.2308,30.6668 C117.9818,30.6468 117.7928,30.6148 117.6658,30.5688 C117.5378,30.5228 117.4448,30.4618 117.3838,30.3818 C117.3228,30.3038 117.2658,30.2068 117.2118,30.0888 L114.9738,23.9148 L104.1228,23.9148 L101.9858,30.0098 C101.9458,30.1278 101.8918,30.2288 101.8238,30.3138 C101.7568,30.3988 101.6588,30.4708 101.5318,30.5298 C101.4038,30.5888 101.2228,30.6308 100.9868,30.6568 C100.7518,30.6828 100.4458,30.6958 100.0698,30.6958 C99.6798,30.6958 99.3608,30.6788 99.1118,30.6468 C98.8628,30.6148 98.6888,30.5518 98.5878,30.4618 C98.4868,30.3698 98.4398,30.2358 98.4458,30.0588 C98.4528,29.8828 98.5098,29.6508 98.6178,29.3638 L107.3698,5.8058 C107.4238,5.6618 107.4938,5.5448 107.5818,5.4528 C107.6688,5.3618 107.7968,5.2898 107.9648,5.2368 C108.1328,5.1848 108.3488,5.1488 108.6108,5.1298 C108.8728,5.1098 109.2058,5.0998 109.6098,5.0998 C110.0388,5.0998 110.3958,5.1098 110.6778,5.1298 C110.9598,5.1488 111.1888,5.1848 111.3628,5.2368 C111.5378,5.2898 111.6728,5.3648 111.7668,5.4628 C111.8608,5.5608 111.9348,5.6818 111.9878,5.8248 L120.7408,29.3828 Z" id="Fill-9" fill="#000000"></path>
        <path d="M152.6455,17.8197 C152.6455,16.3827 152.5145,15.0497 152.2515,13.8217 C151.9905,12.5937 151.5525,11.5257 150.9415,10.6167 C150.3295,9.7097 149.5125,9.0007 148.4915,8.4907 C147.4685,7.9807 146.2055,7.7267 144.6995,7.7267 C143.1935,7.7267 141.9295,7.9977 140.9085,8.5397 C139.8865,9.0817 139.0555,9.8137 138.4175,10.7347 C137.7795,11.6557 137.3215,12.7237 137.0455,13.9397 C136.7705,15.1537 136.6325,16.4417 136.6325,17.7997 C136.6325,19.2897 136.7605,20.6587 137.0155,21.9057 C137.2715,23.1537 137.7015,24.2347 138.3065,25.1497 C138.9125,26.0647 139.7215,26.7727 140.7375,27.2757 C141.7515,27.7797 143.0255,28.0307 144.5585,28.0307 C146.0785,28.0307 147.3545,27.7567 148.3905,27.2077 C149.4255,26.6587 150.2585,25.9177 150.8905,24.9827 C151.5225,24.0487 151.9725,22.9647 152.2425,21.7297 C152.5105,20.4947 152.6455,19.1917 152.6455,17.8197 M159.5015,32.8127 C159.5015,33.1137 159.4855,33.3647 159.4525,33.5677 C159.4175,33.7697 159.3685,33.9257 159.3005,34.0377 C159.2335,34.1487 159.1595,34.2237 159.0795,34.2627 C158.9985,34.3017 158.9175,34.3217 158.8365,34.3217 C158.5675,34.3217 158.1335,34.2147 157.5365,33.9987 C156.9375,33.7827 156.2485,33.4687 155.4685,33.0577 C154.6895,32.6457 153.8555,32.1467 152.9675,31.5577 C152.0815,30.9697 151.2205,30.2847 150.3865,29.5007 C149.7275,29.8927 148.8945,30.2327 147.8855,30.5197 C146.8775,30.8067 145.7085,30.9507 144.3765,30.9507 C142.4145,30.9507 140.7165,30.6697 139.2855,30.1077 C137.8525,29.5467 136.6695,28.7227 135.7355,27.6387 C134.8005,26.5537 134.1045,25.2057 133.6485,23.5907 C133.1905,21.9777 132.9615,20.1257 132.9615,18.0347 C132.9615,16.0237 133.2105,14.2037 133.7085,12.5767 C134.2065,10.9497 134.9525,9.5657 135.9475,8.4227 C136.9425,7.2787 138.1855,6.3967 139.6775,5.7767 C141.1705,5.1557 142.9115,4.8447 144.9015,4.8447 C146.7695,4.8447 148.4145,5.1267 149.8325,5.6877 C151.2505,6.2497 152.4405,7.0697 153.4015,8.1477 C154.3635,9.2257 155.0855,10.5547 155.5695,12.1357 C156.0535,13.7167 156.2955,15.5337 156.2955,17.5847 C156.2955,18.6427 156.2315,19.6557 156.1045,20.6227 C155.9765,21.5897 155.7745,22.5037 155.4995,23.3667 C155.2235,24.2287 154.8765,25.0257 154.4605,25.7567 C154.0435,26.4887 153.5525,27.1487 152.9885,27.7367 C153.9695,28.5207 154.8305,29.1317 155.5695,29.5687 C156.3085,30.0077 156.9205,30.3377 157.4055,30.5587 C157.8885,30.7807 158.2655,30.9407 158.5345,31.0397 C158.8025,31.1367 159.0045,31.2477 159.1395,31.3727 C159.2735,31.4967 159.3685,31.6727 159.4215,31.9017 C159.4755,32.1307 159.5015,32.4337 159.5015,32.8127" id="Fill-11" fill="#000000"></path>
        <path d="M168.6631,11.1039 C168.6631,11.2149 168.6541,11.3089 168.6371,11.3849 C168.6191,11.4609 168.5961,11.5229 168.5661,11.5699 C168.5371,11.6169 168.5031,11.6499 168.4651,11.6709 C168.4271,11.6909 168.3881,11.7019 168.3471,11.7019 L162.4051,11.7019 C162.3641,11.7019 162.3261,11.6909 162.2911,11.6709 C162.2561,11.6499 162.2221,11.6169 162.1891,11.5699 C162.1571,11.5229 162.1331,11.4609 162.1151,11.3849 C162.0981,11.3089 162.0891,11.2149 162.0891,11.1039 C162.0891,10.9989 162.0981,10.9079 162.1151,10.8319 C162.1331,10.7549 162.1541,10.6919 162.1821,10.6429 C162.2071,10.5929 162.2391,10.5549 162.2771,10.5279 C162.3151,10.5019 162.3581,10.4889 162.4051,10.4889 L164.7781,10.4889 L164.7781,1.8399 L162.5811,3.1499 C162.4701,3.2079 162.3801,3.2439 162.3121,3.2549 C162.2451,3.2669 162.1911,3.2539 162.1501,3.2159 C162.1091,3.1779 162.0811,3.1149 162.0661,3.0269 C162.0521,2.9389 162.0451,2.8279 162.0451,2.6929 C162.0451,2.5929 162.0491,2.5079 162.0591,2.4379 C162.0661,2.3679 162.0801,2.3089 162.0981,2.2619 C162.1151,2.2149 162.1401,2.1739 162.1721,2.1389 C162.2041,2.1039 162.2471,2.0689 162.3001,2.0339 L164.9191,0.3549 C164.9421,0.3369 164.9721,0.3229 165.0071,0.3109 C165.0421,0.2989 165.0861,0.2879 165.1391,0.2759 C165.1911,0.2639 165.2531,0.2569 165.3231,0.2539 C165.3931,0.2509 165.4811,0.2499 165.5871,0.2499 C165.7271,0.2499 165.8451,0.2549 165.9381,0.2669 C166.0321,0.2789 166.1051,0.2949 166.1581,0.3149 C166.2111,0.3359 166.2461,0.3619 166.2641,0.3949 C166.2811,0.4269 166.2901,0.4599 166.2901,0.4959 L166.2901,10.4889 L168.3471,10.4889 C168.3931,10.4889 168.4371,10.5019 168.4781,10.5279 C168.5191,10.5549 168.5531,10.5929 168.5801,10.6429 C168.6051,10.6919 168.6261,10.7549 168.6411,10.8319 C168.6551,10.9079 168.6631,10.9989 168.6631,11.1039" id="Fill-13" fill="#000000"></path>
        <path d="M162.4053,10.7387 C162.3903,10.7817 162.3753,10.8187 162.3583,10.8877 C162.3453,10.9457 162.3393,11.0177 162.3393,11.1037 C162.3393,11.1957 162.3453,11.2717 162.3583,11.3287 C162.3733,11.3887 162.3873,11.4167 162.3953,11.4277 L168.3463,11.4517 C168.3623,11.4247 168.3783,11.3927 168.3933,11.3287 C168.4063,11.2717 168.4133,11.1957 168.4133,11.1037 C168.4133,11.0167 168.4073,10.9417 168.3953,10.8787 C168.3833,10.8147 168.3683,10.7767 168.3573,10.7567 L166.0403,10.7387 L166.0403,0.5397 C166.0103,0.5317 165.9693,0.5227 165.9073,0.5147 C165.7563,0.4957 165.4863,0.4977 165.3343,0.5037 C165.2803,0.5057 165.2333,0.5107 165.1933,0.5197 C165.1503,0.5297 165.1143,0.5387 165.0863,0.5487 L162.4343,2.2437 C162.3923,2.2717 162.3683,2.2947 162.3563,2.3077 C162.3243,2.3707 162.3133,2.4067 162.3063,2.4657 C162.2983,2.5327 162.2953,2.6067 162.2953,2.6927 C162.2953,2.8107 162.3003,2.9087 162.3133,2.9857 C162.2883,3.0067 162.3463,2.9897 162.4653,2.9287 L165.0283,1.4007 L165.0283,10.7387 L162.4053,10.7387 Z M168.3463,11.9517 L162.4053,11.9517 C162.3193,11.9517 162.2393,11.9297 162.1653,11.8867 C162.0973,11.8467 162.0363,11.7887 161.9833,11.7117 C161.9333,11.6387 161.8963,11.5507 161.8723,11.4417 C161.8493,11.3457 161.8393,11.2357 161.8393,11.1037 C161.8393,10.9787 161.8493,10.8707 161.8723,10.7757 C161.8953,10.6737 161.9253,10.5907 161.9633,10.5227 C162.0033,10.4427 162.0623,10.3727 162.1343,10.3227 C162.2153,10.2677 162.3073,10.2387 162.4053,10.2387 L164.5283,10.2387 L164.5283,2.2807 L162.7093,3.3647 C162.5613,3.4427 162.4503,3.4857 162.3553,3.5017 C162.2123,3.5277 162.0793,3.4907 161.9803,3.3987 C161.8973,3.3217 161.8433,3.2107 161.8193,3.0677 C161.8033,2.9687 161.7953,2.8437 161.7953,2.6927 C161.7953,2.5797 161.8003,2.4837 161.8103,2.4037 C161.8203,2.3217 161.8383,2.2427 161.8633,2.1747 C161.8923,2.0967 161.9343,2.0287 161.9873,1.9697 C162.0333,1.9207 162.0903,1.8727 162.1613,1.8257 L164.7843,0.1447 C164.8133,0.1207 164.8673,0.0937 164.9273,0.0737 C164.9693,0.0597 165.0213,0.0457 165.0843,0.0317 C165.1493,0.0167 165.2253,0.0077 165.3123,0.0037 C165.4883,-0.0033 165.7943,-0.0023 165.9693,0.0187 C166.0853,0.0327 166.1763,0.0537 166.2493,0.0827 C166.3573,0.1247 166.4363,0.1897 166.4833,0.2747 C166.5203,0.3437 166.5403,0.4187 166.5403,0.4957 L166.5403,10.2387 L168.3463,10.2387 C168.4423,10.2387 168.5323,10.2657 168.6133,10.3177 C168.6893,10.3657 168.7513,10.4347 168.7993,10.5227 C168.8393,10.6007 168.8673,10.6867 168.8853,10.7837 C168.9033,10.8737 168.9133,10.9807 168.9133,11.1037 C168.9133,11.2357 168.9023,11.3457 168.8803,11.4417 C168.8563,11.5457 168.8233,11.6317 168.7783,11.7017 C168.7263,11.7857 168.6603,11.8497 168.5833,11.8907 C168.5093,11.9307 168.4283,11.9517 168.3463,11.9517 Z" id="Fill-15" fill="#000000"></path>
    </g>
</svg>