<?xml version="1.0" encoding="UTF-8"?>
<svg width="42px" height="42px" viewBox="0 0 42 42" version="1.1" xmlns="http://www.w3.org/2000/svg" xmlns:xlink="http://www.w3.org/1999/xlink">
    <!-- Generator: Sketch 50.2 (55047) - http://www.bohemiancoding.com/sketch -->
    <title>icon/blue/-g-icon_cd_texture</title>
    <desc>Created with Sketch.</desc>
    <defs></defs>
    <g id="icon/blue/-g-icon_cd_texture" stroke="none" stroke-width="1" fill="none" fill-rule="evenodd">
        <circle id="Oval-7-Copy-20" stroke="#0075FF" cx="21" cy="21" r="19.5"></circle>
        <g id="Group-2" transform="translate(21.000000, 21.000000) rotate(-270.000000) translate(-21.000000, -21.000000) translate(7.000000, 5.000000)" stroke="#0075FF">
            <path d="M1.8856769,25.4523783 C4.7674856,29.142721 9.19448366,31.3625821 13.9972611,31.3625821 C18.7886127,31.3625821 23.2062749,29.1533397 26.0889352,25.4777961 L1.8856769,25.4523783 Z M26.1601828,6.61367288 C23.2807656,2.88487359 18.8296108,0.637417897 13.9972611,0.637417897 C9.20364457,0.637417897 4.78410022,2.84875617 1.90156634,6.52733039 L26.1601828,6.61367288 Z" id="Oval-7-Copy-20"></path>
            <path d="M5.25095479,24.9273175 C7.56096938,27.193434 10.6742171,28.5 14.0008177,28.5 C17.3163762,28.5 20.4201767,27.2021485 22.7281833,24.9493128 L5.25095479,24.9273175 Z M22.6832783,7.00710624 C20.379492,4.78067722 17.2944869,3.5 14.0008177,3.5 C10.7010235,3.5 7.6107689,4.78547506 5.30580636,7.01924187 L22.6832783,7.00710624 Z" id="Oval-7-Copy-20"></path>
            <path d="M9.25196969,24.2305719 C10.6762362,25.0542455 12.3034984,25.5 14,25.5 C15.6651069,25.5 17.263695,25.0706514 18.6694614,24.2754883 L9.25196969,24.2305719 Z M18.6015604,7.68648257 C17.2121264,6.91555785 15.6382092,6.5 14,6.5 C12.3529412,6.5 10.7709206,6.92007615 9.37613487,7.69889187 L18.6015604,7.68648257 Z" id="Oval-7-Copy-20"></path>
        </g>
        <rect id="Rectangle" stroke="#0075FF" x="13.5" y="6.5" width="15" height="29" rx="2"></rect>
        <path d="M17.4,8 L17.4,8.25 C17.4,8.80228475 17.8477153,9.25 18.4,9.25 L23.6,9.25 C24.1522847,9.25 24.6,8.80228475 24.6,8.25 L24.6,8 L26,8 C26.5522847,8 27,8.44771525 27,9 L27,33 C27,33.5522847 26.5522847,34 26,34 L16,34 C15.4477153,34 15,33.5522847 15,33 L15,9 C15,8.44771525 15.4477153,8 16,8 L17.4,8 Z" id="Combined-Shape" stroke="#0075FF" stroke-linecap="round" stroke-linejoin="round"></path>
    </g>
</svg>