<?xml version="1.0" encoding="UTF-8"?>
<svg width="42px" height="42px" viewBox="0 0 42 42" version="1.1" xmlns="http://www.w3.org/2000/svg" xmlns:xlink="http://www.w3.org/1999/xlink">
    <!-- Generator: Sketch 50.2 (55047) - http://www.bohemiancoding.com/sketch -->
    <title>icon/blue/-g-icon_qi</title>
    <desc>Created with Sketch.</desc>
    <defs></defs>
    <g id="icon/blue/-g-icon_qi" stroke="none" stroke-width="1" fill="none" fill-rule="evenodd">
        <g id="Group" transform="translate(1.000000, 1.000000)" stroke="#0075FF">
            <circle id="Oval-7" cx="20" cy="20" r="19.5"></circle>
            <g id="Group-32" transform="translate(9.500000, 5.500000)" stroke-width="0.970000029">
                <path d="M9.5,23.4146341 C4.25329488,23.4146341 0,19.1558793 0,13.902439 C0,8.64899872 4.25329488,4.3902439 9.5,4.3902439 C10.7947782,4.3902439 12.0290577,4.64960217 13.1538462,5.11926344 L13.1538462,22.6856146 L13.1538462,30 C11.1358826,30 9.5,28.3641174 9.5,26.3461538 L9.5,23.4146341 Z M16.0038462,6.96891733 C17.848141,8.70403942 19,11.168551 19,13.902439 C19,16.636327 17.848141,19.1008386 16.0038462,20.8359607 L16.0038462,6.96891733 Z M9.5,8.04878049 C6.27125839,8.04878049 3.65384615,10.6695527 3.65384615,13.902439 C3.65384615,17.1353254 6.27125839,19.7560976 9.5,19.7560976 L9.5,8.04878049 Z" id="Combined-Shape" stroke-linecap="round" stroke-linejoin="round"></path>
                <ellipse id="Oval-18" cx="14.9807692" cy="1.82926829" rx="1.82692308" ry="1.82926829"></ellipse>
            </g>
        </g>
    </g>
</svg>