<?xml version="1.0" encoding="UTF-8"?>
<svg width="42px" height="42px" viewBox="0 0 42 42" version="1.1" xmlns="http://www.w3.org/2000/svg" xmlns:xlink="http://www.w3.org/1999/xlink">
    <!-- Generator: Sketch 50.2 (55047) - http://www.bohemiancoding.com/sketch -->
    <title>icon/blue/-g-icon_light_design</title>
    <desc>Created with Sketch.</desc>
    <defs></defs>
    <g id="icon/blue/-g-icon_light_design" stroke="none" stroke-width="1" fill="none" fill-rule="evenodd">
        <circle id="Oval-7-Copy-20" stroke="#0075FF" cx="21" cy="21" r="19.5"></circle>
        <g id="Group" transform="translate(8.000000, 13.000000)" stroke="#0075FF" stroke-width="0.930000007">
            <ellipse id="Oval-2" cx="13" cy="7.08333333" rx="11.1428571" ry="7.08333333"></ellipse>
            <ellipse id="Oval-2" cx="13" cy="8.5" rx="13" ry="8.5"></ellipse>
            <ellipse id="Oval-2" cx="13" cy="6.61111111" rx="8.35714286" ry="4.72222222"></ellipse>
            <ellipse id="Oval-2" cx="13" cy="6.13888889" rx="4.64285714" ry="2.36111111"></ellipse>
        </g>
        <path d="M4.50764749,21 L6.53823744,21 M8.42695687,9.79946951 L9.98247902,11.1047076 M18.3509966,3.83979172 L18.7036048,5.83953245 M29.6361982,5.90956609 L28.6209032,7.66810858 M37.0020904,15.0403222 L35.09396,15.7348249 M37.0020904,26.9596778 L35.09396,26.2651751 M29.6361982,36.0904339 L28.6209032,34.3318914 M18.3509966,38.1602083 L18.7036048,36.1604676 M8.42695687,32.2005305 L9.98247902,30.8952924" id="Line-2" stroke="#0075FF" stroke-width="1.07" stroke-linecap="round" stroke-linejoin="round" transform="translate(21.000000, 21.000000) rotate(-330.000000) translate(-21.000000, -21.000000) "></path>
    </g>
</svg>